<?xml version="1.0" encoding="utf-8"?>
<!-- Generator: Adobe Illustrator 28.0.0, SVG Export Plug-In . SVG Version: 6.00 Build 0)  -->
<svg version="1.1" id="Layer_1" xmlns="http://www.w3.org/2000/svg" xmlns:xlink="http://www.w3.org/1999/xlink" x="0px" y="0px"
	 viewBox="0 0 637.36 245.81" style="enable-background:new 0 0 637.36 245.81;" xml:space="preserve">
<style type="text/css">
	.st0{fill:#D10964;}
	.st1{fill:url(#SVGID_1_);}
	.st2{fill:url(#SVGID_00000029028408980187298570000007286546413949113496_);}
	.st3{fill:url(#SVGID_00000023993185051965005780000011997891073633605310_);}
	.st4{fill:url(#SVGID_00000135681888037629151890000007777225036207714435_);}
</style>
<g>
	<g>
		<g>
			<path class="st0" d="M134.54,142.67c0.05,0.65-0.29,0.97-1,0.97c-0.46,0-1.76-0.26-3.93-0.79c-2.16-0.52-3.49-0.88-3.99-1.07
				c-5,1.96-9.79,2.94-14.38,2.94c-7.39,0-13.44-2.46-18.18-7.39c-4.69-4.85-7.03-10.98-7.03-18.39c0-7.58,2.27-13.86,6.81-18.86
				c4.68-5.16,10.77-7.75,18.25-7.75c3.63,0,7.05,0.69,10.25,2.08c3.46,1.53,6.19,3.68,8.17,6.45c0.41,0.57,0.61,0.98,0.61,1.22
				c0,0.77-1.07,2.48-3.21,5.14c-2.14,2.67-3.52,4-4.14,4c-0.14,0-0.7-0.49-1.65-1.47c-1.17-1.17-2.37-2.08-3.59-2.72
				c-1.81-0.98-3.83-1.47-6.02-1.47c-3.59,0-6.43,1.34-8.54,4.02c-1.96,2.46-2.94,5.53-2.94,9.21c0,3.9,1.01,6.98,3.05,9.25
				c2.1,2.34,5.08,3.51,8.93,3.51c2.44,0,5.16-0.61,8.17-1.83c-0.07-0.79-0.28-2.8-0.64-6.02c-0.31-2.49-0.47-4.49-0.47-6.02
				c0-0.45,0.16-0.73,0.47-0.82c0.12-0.05,0.31-0.07,0.57-0.07c0.69,0,1.74,0.07,3.14,0.2c1.4,0.13,2.46,0.2,3.17,0.2
				c0.77,0,1.91-0.05,3.44-0.16c1.53-0.11,2.68-0.16,3.44-0.16c0.6,0,0.9,0.39,0.9,1.18c0,1.15-0.07,2.88-0.2,5.2
				c-0.13,2.32-0.2,4.05-0.2,5.2c0,3.09,0.23,7.7,0.68,13.84L134.54,142.67z"/>
			<path class="st0" d="M172.15,124.35c0,2.41-0.78,3.79-2.33,4.12c-0.27,0.05-2.74,0.31-7.42,0.79c-2.82,0.31-7.02,0.68-12.62,1.11
				c0.33,1.55,1.35,2.74,3.05,3.55c1.38,0.67,2.96,1,4.73,1c2.13,0,4.26-0.57,6.42-1.72c0.91-0.57,1.81-1.15,2.73-1.72
				c0.5,0.24,1.34,1.46,2.53,3.66c1.18,2.2,1.78,3.6,1.78,4.2c0,0.17-0.18,0.44-0.54,0.82c-2.92,3.13-7.45,4.7-13.59,4.7
				c-5.69,0-10.28-1.66-13.77-4.98c-3.58-3.37-5.38-7.88-5.38-13.52c0-5.5,1.6-10,4.81-13.52c3.3-3.63,7.67-5.45,13.12-5.45
				c4.59,0,8.49,1.67,11.69,5.02C170.55,115.76,172.15,119.74,172.15,124.35z M159.6,122.16c0-1.48-0.53-2.78-1.58-3.91
				c-1.05-1.12-2.31-1.68-3.76-1.68c-1.51,0-2.75,0.63-3.73,1.9c-0.91,1.17-1.36,2.55-1.36,4.12c0,0.65,0.33,0.97,1,0.97
				c1.77,0,4.52-0.27,8.25-0.82C159.2,122.62,159.6,122.42,159.6,122.16z"/>
			<path class="st0" d="M211.74,142.78c0,0.65-0.34,1.02-1.01,1.11c-0.67,0.1-2.41,0.14-5.23,0.14c-3.01,0-4.88-0.07-5.59-0.22
				c-0.72-0.14-1.08-0.63-1.08-1.47c0-1.12,0.04-2.82,0.11-5.09c0.07-2.27,0.11-3.98,0.11-5.13c0-0.88-0.02-2.2-0.07-3.96
				c-0.05-1.76-0.07-3.08-0.07-3.96c0-3.28-1.42-4.91-4.27-4.91c-0.93,0-2.02,0.41-3.26,1.22c-1.34,0.91-2.01,1.81-2.01,2.69v19.36
				c0,0.79-0.37,1.23-1.11,1.33c-0.84,0.1-2.55,0.14-5.12,0.14c-2.8,0-4.61-0.07-5.45-0.22c-0.74-0.12-1.11-0.51-1.11-1.18
				c0-1.86,0.01-4.67,0.03-8.43c0.02-3.75,0.04-6.57,0.04-8.46c0-5.95-0.47-10.62-1.4-14.02c-0.05-0.22-0.07-0.39-0.07-0.54
				c0-0.38,0.18-0.65,0.54-0.79c1.51-0.17,3.51-0.43,6.02-0.79c3.8-0.74,5.94-1.11,6.42-1.11c0.26,0,0.47,0.81,0.61,2.42
				c0.14,1.61,0.35,2.42,0.61,2.42c-0.26,0,1.02-0.83,3.86-2.49c2.83-1.66,5.31-2.49,7.44-2.49c3.03,0,5.57,0.72,7.6,2.15
				c2.27,1.65,3.41,3.94,3.41,6.88v11.44c0,1.55,0.01,3.88,0.03,6.97C211.72,138.9,211.74,141.22,211.74,142.78z"/>
			<path class="st0" d="M281.65,111.87c0,0.07-2.23,4.89-6.67,14.45c-4.52,9.75-7.1,15.24-7.74,16.46c-0.22,0.43-0.35,0.67-0.4,0.72
				c-0.1,0.12-0.32,0.23-0.68,0.32c-0.6,0.14-2.3,0.22-5.09,0.22c-2.61,0-4.2-0.07-4.77-0.22c-0.48-0.12-0.77-0.22-0.86-0.29
				c-0.1-0.07-0.25-0.3-0.47-0.68c-0.14-0.26-0.82-1.95-2.04-5.05l-3.91-9.97l-3.98,10.07c-0.41,1.15-1.08,2.8-2.01,4.95
				c-0.24,0.41-0.41,0.65-0.5,0.74c-0.1,0.08-0.37,0.16-0.82,0.23c-0.82,0.14-2.38,0.22-4.7,0.22c-2.87,0-4.59-0.07-5.16-0.22
				c-0.41-0.1-0.74-0.44-1-1.04c-9.37-19.24-14.06-29.54-14.06-30.91c0-1.91,0.07-4.77,0.2-8.59c0.13-3.81,0.2-6.67,0.2-8.59
				c0-0.79,0.24-1.18,0.72-1.18c1.36,0,3.43,0.06,6.19,0.18c2.76,0.12,4.83,0.18,6.22,0.18c0.55,0,0.83,0.23,0.83,0.68
				c0,1.91-0.09,4.8-0.27,8.66c-0.18,3.86-0.27,6.75-0.27,8.66c0,0.72,0.87,3,2.61,6.85c1.58,3.44,2.73,5.77,3.44,6.99
				c0.36,0.62,0.6,0.93,0.72,0.93c0.19,0,0.68-1.15,1.47-3.44c2.25-6.43,3.39-10.23,3.44-11.4c0.1-2.2,0.11-5,0.03-8.39
				c-0.07-4.9-0.11-7.71-0.11-8.43c0-0.45,0.04-0.72,0.11-0.81c0.07-0.08,0.33-0.16,0.79-0.23c1.22-0.14,3.32-0.22,6.31-0.22
				c4.56,0,6.85,0.32,6.85,0.97c0,1.6-0.06,4.09-0.18,7.46c-0.12,3.28-0.17,5.76-0.14,7.46v1.83c0,1.22,1.23,5.1,3.69,11.65
				c0.83,2.27,1.34,3.41,1.5,3.41c0.12,0,0.36-0.31,0.72-0.93c0.67-1.17,1.74-3.49,3.23-6.96c1.65-3.78,2.48-6.02,2.48-6.74
				c0-1.94-0.09-4.83-0.27-8.69c-0.18-3.86-0.27-6.75-0.27-8.66c0-0.43,0.27-0.65,0.82-0.65c1.41,0,3.53-0.06,6.36-0.18
				c2.83-0.12,4.96-0.18,6.37-0.18c0.45,0,0.68,0.48,0.68,1.43c0,1.89,0.07,4.72,0.2,8.48
				C281.58,107.19,281.65,110.01,281.65,111.87z"/>
			<path class="st0" d="M319.51,124.35c0,2.41-0.78,3.79-2.33,4.12c-0.27,0.05-2.74,0.31-7.42,0.79c-2.82,0.31-7.02,0.68-12.62,1.11
				c0.33,1.55,1.35,2.74,3.05,3.55c1.38,0.67,2.96,1,4.73,1c2.13,0,4.26-0.57,6.42-1.72c0.91-0.57,1.81-1.15,2.73-1.72
				c0.5,0.24,1.34,1.46,2.53,3.66s1.78,3.6,1.78,4.2c0,0.17-0.18,0.44-0.54,0.82c-2.92,3.13-7.45,4.7-13.59,4.7
				c-5.69,0-10.28-1.66-13.77-4.98c-3.58-3.37-5.38-7.88-5.38-13.52c0-5.5,1.6-10,4.81-13.52c3.3-3.63,7.67-5.45,13.12-5.45
				c4.59,0,8.49,1.67,11.69,5.02C317.91,115.76,319.51,119.74,319.51,124.35z M306.96,122.16c0-1.48-0.53-2.78-1.58-3.91
				c-1.05-1.12-2.31-1.68-3.76-1.68c-1.51,0-2.75,0.63-3.73,1.9c-0.91,1.17-1.36,2.55-1.36,4.12c0,0.65,0.33,0.97,1,0.97
				c1.77,0,4.52-0.27,8.25-0.82C306.57,122.62,306.96,122.42,306.96,122.16z"/>
			<path class="st0" d="M362.32,126.28c0,5.02-1.43,9.22-4.3,12.59c-3.06,3.59-7.05,5.38-11.98,5.38c-3.59,0-6.48-1.03-8.68-3.08
				c-0.17-0.14-0.31-0.22-0.43-0.22c-0.24,0-0.46,0.44-0.66,1.33c-0.2,0.88-0.45,1.37-0.74,1.47c-0.4,0.12-3.81,0.18-10.22,0.18
				c-1.51,0-2.26-0.27-2.26-0.82c0-0.07,0.02-0.25,0.07-0.54c0.48-3.8,0.72-11.04,0.72-21.73c0-10.21-0.36-19.09-1.07-26.64
				l-0.04-0.39c0-0.38,0.37-0.6,1.11-0.65c0.53-0.02,2.61-0.2,6.24-0.54c2.56-0.24,4.64-0.36,6.24-0.36c0.45,0,0.68,0.39,0.68,1.18
				c0,0.93-0.06,2.16-0.18,3.69c-0.14,1.89-0.23,3.13-0.25,3.73c-0.12,2.37-0.18,5.59-0.18,9.68c0,0.74,0.19,1.11,0.58,1.11
				c0.19,0,0.37-0.1,0.53-0.29c2.15-2.29,4.97-3.44,8.46-3.44c5.24,0,9.32,1.78,12.26,5.34
				C360.96,116.57,362.32,120.91,362.32,126.28z M349.34,125.89c0-1.98-0.61-3.66-1.83-5.04c-1.22-1.37-2.81-2.06-4.77-2.06
				c-2.01,0-3.59,0.69-4.75,2.06c-1.16,1.37-1.74,3.08-1.74,5.11c0,2.1,0.56,3.8,1.68,5.09c1.2,1.36,2.82,2.04,4.88,2.04
				c2.03,0,3.64-0.7,4.84-2.11C348.78,129.67,349.34,127.97,349.34,125.89z"/>
			<path class="st0" d="M409.33,128.33c0,4.4-1.38,8.04-4.12,10.93c-3.13,3.32-8.63,4.98-16.49,4.98c-0.6,0-1.46-0.01-2.58-0.04
				c-1.15,0-2,0-2.55,0c-8.82,0-14.07-0.18-15.74-0.54c-0.69-0.14-1.04-0.51-1.04-1.11c0-2.56,0.15-6.43,0.45-11.62
				c0.3-5.19,0.45-9.07,0.45-11.65c0-2.77-0.14-7.98-0.43-15.63c-0.07-1.96-0.2-4.9-0.4-8.82l-0.03-0.5
				c-0.02-0.45,0.35-0.73,1.13-0.82c0.78-0.1,3.54-0.14,8.3-0.14c7.62,0,12.08,0.02,13.37,0.07c5.88,0.21,10.22,1.17,13.01,2.87
				c3.71,2.27,5.56,6.11,5.56,11.51c0,1.41-0.43,2.9-1.29,4.48c-0.62,1.12-1.43,2.25-2.44,3.37c-0.88,0.98-1.33,1.43-1.33,1.36
				c0,0.17,0.31,0.43,0.93,0.79c1.68,0.96,2.99,2.47,3.94,4.55C408.9,124.24,409.33,126.22,409.33,128.33z M393.91,108.14
				c0-2.06-1.03-3.42-3.08-4.09c-1.15-0.36-3.04-0.54-5.67-0.54c-2.58,0-3.87,0.19-3.87,0.57c0,0.45-0.04,1.14-0.12,2.06
				c-0.08,0.92-0.13,1.61-0.13,2.06c0,2.39,0.2,3.73,0.61,4.02c0.26,0.22,1.78,0.32,4.55,0.32
				C391.34,112.55,393.91,111.08,393.91,108.14z M394.99,128.19c0-2.15-0.9-3.61-2.69-4.38c-1.15-0.48-3.01-0.72-5.59-0.72
				c-3.08,0-4.76,0.12-5.02,0.34c-0.27,0.23-0.4,1.69-0.4,4.39c0,2.82,0.16,4.38,0.47,4.68c0.31,0.3,2.03,0.45,5.16,0.45
				c2.58,0,4.4-0.2,5.45-0.61C394.11,131.65,394.99,130.27,394.99,128.19z"/>
			<path class="st0" d="M450.53,111.23c0,1.77-0.08,4.42-0.25,7.96c-0.17,3.54-0.25,6.19-0.25,7.96c0,1.72,0.06,4.3,0.18,7.75
				c0.12,3.44,0.18,6.01,0.18,7.71c0,0.65-0.3,1.05-0.9,1.22c-0.91,0.24-2.83,0.36-5.77,0.36c-2.61,0-4.42-0.07-5.45-0.22
				c-0.46-0.07-0.74-0.36-0.86-0.86c-0.07-0.72-0.15-1.43-0.22-2.15c-0.12-1.1-0.29-1.65-0.5-1.65c0.33,0-0.87,0.81-3.62,2.44
				c-2.75,1.63-5.25,2.44-7.49,2.44c-6.33,0-10.09-2.86-11.26-8.57c-0.53-2.65-0.79-6.5-0.79-11.55c0-5.45,0.44-9.75,1.33-12.91
				c0.26-0.98,0.75-1.47,1.47-1.47c1.1,0,2.77,0.01,5.02,0.03c2.25,0.02,3.92,0.04,5.02,0.04c0.74,0,1.11,0.31,1.11,0.93
				c0,0.17-0.02,0.42-0.07,0.75c-0.5,3.25-0.75,6.55-0.75,9.89c0,4.16,0.13,7.01,0.4,8.54c0.43,2.63,2,3.94,4.69,3.94
				c1.05,0,2.2-0.47,3.43-1.4c1.23-0.93,1.87-1.9,1.92-2.9c0.05-0.88,0.07-6.88,0.07-18c0-0.79,0.06-1.26,0.18-1.4
				c0.14-0.24,0.57-0.36,1.29-0.36c1.17,0,2.93,0.01,5.29,0.04c2.36,0.02,4.12,0.03,5.29,0.03c0.72,0,1.13,0.18,1.25,0.54
				C450.5,110.56,450.53,110.84,450.53,111.23z"/>
			<path class="st0" d="M469.71,127.36c0,1.75,0.04,4.34,0.11,7.8c0.07,3.45,0.11,6.04,0.11,7.76c0,0.5-0.3,0.8-0.9,0.9
				c-0.81,0.14-2.64,0.22-5.49,0.22c-2.87,0-4.71-0.07-5.52-0.22c-0.53-0.1-0.85-0.25-0.97-0.47c-0.05-0.1-0.07-0.46-0.07-1.08
				c0-1.65,0.03-4.13,0.11-7.44c0.07-3.31,0.11-5.8,0.11-7.48c0-6.79-0.27-12.19-0.79-16.21c-0.05-0.38-0.07-0.63-0.07-0.75
				c0-0.48,0.32-0.72,0.97-0.72c0.67,0,1.69,0.07,3.06,0.22c1.37,0.14,2.41,0.22,3.1,0.22c0.69,0,1.73-0.06,3.12-0.18
				c1.38-0.12,2.43-0.18,3.12-0.18c0.57,0,0.86,0.24,0.86,0.72c0,0.1-0.02,0.32-0.07,0.68
				C469.97,115.81,469.71,121.22,469.71,127.36z M470.64,100.72c0,4.16-2.35,6.24-7.03,6.24c-2.01,0-3.67-0.52-4.98-1.58
				c-1.43-1.15-2.15-2.7-2.15-4.66c0-1.86,0.74-3.39,2.22-4.59c1.36-1.1,3-1.65,4.91-1.65c1.86,0,3.48,0.56,4.84,1.69
				C469.91,97.36,470.64,98.88,470.64,100.72z"/>
			<path class="st0" d="M489.68,122.23c0,6.52,0.02,11.53,0.07,15.02c0,0.55,0.03,1.49,0.11,2.83c0.07,1.22,0.11,2.16,0.11,2.83
				c0,0.5-0.3,0.8-0.9,0.9c-1.08,0.19-3.01,0.29-5.81,0.29c-2.87,0-4.7-0.1-5.49-0.29c-0.53-0.12-0.82-0.44-0.9-0.97
				c0-0.07,0-0.58,0-1.54c0-2.13,0.02-5.31,0.07-9.55c0.05-4.24,0.07-7.42,0.07-9.52c0-10.04,0.01-14.62,0.04-13.73
				c-0.07-5.28-0.37-9.83-0.9-13.66c-0.05-0.26-0.07-0.47-0.07-0.61c0-0.52,0.31-0.79,0.93-0.79h12.8c0.6,0,0.87,0.25,0.82,0.75
				l-0.03,0.65C489.99,105.17,489.68,114.3,489.68,122.23z"/>
			<path class="st0" d="M534.25,92.94c0-0.52-0.1,0.26-0.29,2.37c-0.26,2.65-0.47,6.05-0.61,10.18c-0.19,4.69-0.29,10.02-0.29,15.99
				c0,9.87,0.28,16.9,0.83,21.08c0.05,0.46,0.07,0.74,0.07,0.86c0,0.26-0.18,0.42-0.53,0.47c-0.86,0.12-4.03,0.18-9.5,0.18
				c-1.29,0-2.03-0.25-2.22-0.75c-0.05-0.91-0.1-1.82-0.14-2.73c-0.03-0.19-0.12-0.38-0.29-0.57c-0.14,0.07-0.32,0.22-0.54,0.43
				c-2.58,2.53-5.81,3.8-9.68,3.8c-5.04,0-9.08-1.77-12.12-5.31c-2.89-3.37-4.34-7.62-4.34-12.76c0-5.21,1.42-9.5,4.26-12.87
				c3.01-3.59,7.08-5.38,12.19-5.38c3.61,0,6.42,1.15,8.43,3.44c0.33,0.38,0.57,0.57,0.72,0.57c0.22,0,0.32-0.31,0.32-0.93
				c0-1.84-0.05-4.59-0.14-8.25c-0.1-3.66-0.14-6.39-0.14-8.21c0-0.69,0.19-1.09,0.57-1.18c1.53-0.07,3.63-0.22,6.31-0.43
				c4.78-0.6,6.9-0.9,6.35-0.9C533.98,92.04,534.25,92.34,534.25,92.94z M520.73,125.89c0-1.89-0.66-3.54-1.97-4.97
				s-2.9-2.13-4.77-2.13c-1.96,0-3.52,0.71-4.68,2.13c-1.16,1.42-1.74,3.13-1.74,5.11c0,1.94,0.58,3.57,1.76,4.91
				c1.19,1.43,2.75,2.15,4.66,2.15c1.91,0,3.51-0.72,4.81-2.15C520.08,129.51,520.73,127.83,520.73,125.89z"/>
			<path class="st0" d="M572.4,124.35c0,2.41-0.78,3.79-2.33,4.12c-0.27,0.05-2.74,0.31-7.42,0.79c-2.82,0.31-7.02,0.68-12.62,1.11
				c0.33,1.55,1.35,2.74,3.05,3.55c1.38,0.67,2.96,1,4.73,1c2.13,0,4.26-0.57,6.42-1.72c0.91-0.57,1.81-1.15,2.73-1.72
				c0.5,0.24,1.34,1.46,2.53,3.66c1.18,2.2,1.78,3.6,1.78,4.2c0,0.17-0.18,0.44-0.54,0.82c-2.92,3.13-7.45,4.7-13.59,4.7
				c-5.69,0-10.28-1.66-13.77-4.98c-3.58-3.37-5.38-7.88-5.38-13.52c0-5.5,1.6-10,4.81-13.52c3.3-3.63,7.67-5.45,13.12-5.45
				c4.59,0,8.49,1.67,11.69,5.02C570.8,115.76,572.4,119.74,572.4,124.35z M559.85,122.16c0-1.48-0.53-2.78-1.58-3.91
				c-1.05-1.12-2.31-1.68-3.76-1.68c-1.51,0-2.75,0.63-3.73,1.9c-0.91,1.17-1.36,2.55-1.36,4.12c0,0.65,0.33,0.97,1,0.97
				c1.77,0,4.52-0.27,8.25-0.82C559.45,122.62,559.85,122.42,559.85,122.16z"/>
			<path class="st0" d="M600.11,121.48c0,0.93-0.52,1.4-1.54,1.4c-0.46,0-1.12-0.03-1.99-0.09s-1.52-0.09-1.95-0.09
				c-1.98,0-3.33,0.31-4.05,0.93c-0.72,0.62-1.08,1.88-1.08,3.77c0,1.03,0.02,2.59,0.05,4.68c0.04,2.09,0.05,3.65,0.05,4.68
				c0,0.69,0.05,1.73,0.15,3.1c0.09,1.37,0.14,2.4,0.14,3.07c0,0.57-0.4,0.9-1.18,0.97c-1.15,0.1-2.9,0.14-5.27,0.14
				c-2.27,0-4.09-0.07-5.45-0.22c-0.79-0.1-1.18-0.49-1.18-1.18c0-1.91,0.01-4.77,0.03-8.59c0.02-3.81,0.04-6.67,0.04-8.59
				c0-5.62-0.52-10.24-1.54-13.88c-0.05-0.22-0.07-0.39-0.07-0.54c0-0.36,0.18-0.6,0.54-0.72c1.31-0.14,3.24-0.41,5.77-0.79
				c3.78-0.74,5.72-1.11,5.84-1.11c0.43,0,0.71,0.75,0.83,2.26s0.33,2.26,0.65,2.26c-0.33,0,0.65-0.63,2.94-1.88
				c2.3-1.26,4.51-1.88,6.64-1.88c1.34,0,2.01,0.29,2.01,0.86c0,0.69-0.07,1.67-0.22,2.94c-0.14,1.36-0.23,2.34-0.25,2.94
				c0,0.69,0.01,1.61,0.03,2.76C600.09,120.09,600.11,121.03,600.11,121.48z"/>
		</g>
	</g>
	<g>
		<g>
			<linearGradient id="SVGID_1_" gradientUnits="userSpaceOnUse" x1="36.4916" y1="65.3187" x2="204.4042" y2="65.3187">
				<stop  offset="6.041602e-07" style="stop-color:#D10964"/>
				<stop  offset="1" style="stop-color:#4C2082"/>
			</linearGradient>
			<path class="st1" d="M36.49,117.32l96.74-103.5c1.22-1.31,3.31-1.29,4.51,0.05l66.66,74.49c-0.29-0.16-0.58,0.21-0.36,0.46
				L141.47,55.4c-2.25-1.2-4.98-1.1-7.13,0.27l-97.47,62.1C37.11,117.52,36.79,117.14,36.49,117.32z"/>
			
				<linearGradient id="SVGID_00000109023529016504416350000001566180477147585950_" gradientUnits="userSpaceOnUse" x1="112.6587" y1="80.5226" x2="202.6109" y2="80.5226">
				<stop  offset="6.041602e-07" style="stop-color:#D10964"/>
				<stop  offset="1" style="stop-color:#4C2082"/>
			</linearGradient>
			<path style="fill:url(#SVGID_00000109023529016504416350000001566180477147585950_);" d="M112.66,78.5l19.68-11.65
				c3.45-2.04,7.7-2.2,11.29-0.41l58.98,29.4L112.66,78.5z"/>
		</g>
		<g>
			
				<linearGradient id="SVGID_00000026848074147907903440000011991161663591040688_" gradientUnits="userSpaceOnUse" x1="36.4916" y1="183.3437" x2="204.4042" y2="183.3437">
				<stop  offset="6.041602e-07" style="stop-color:#D10964"/>
				<stop  offset="1" style="stop-color:#4C2082"/>
			</linearGradient>
			<path style="fill:url(#SVGID_00000026848074147907903440000011991161663591040688_);" d="M36.49,131.34l96.74,103.5
				c1.22,1.31,3.31,1.29,4.51-0.05l66.66-74.49c-0.29,0.16-0.58-0.21-0.36-0.46l-62.57,33.42c-2.25,1.2-4.98,1.1-7.13-0.27
				l-97.47-62.1C37.11,131.14,36.79,131.53,36.49,131.34z"/>
			
				<linearGradient id="SVGID_00000173858251314744747790000015195792524567611294_" gradientUnits="userSpaceOnUse" x1="112.6587" y1="168.1398" x2="202.6109" y2="168.1398">
				<stop  offset="6.041602e-07" style="stop-color:#D10964"/>
				<stop  offset="1" style="stop-color:#4C2082"/>
			</linearGradient>
			<path style="fill:url(#SVGID_00000173858251314744747790000015195792524567611294_);" d="M112.66,170.17l19.68,11.65
				c3.45,2.04,7.7,2.2,11.29,0.41l58.98-29.4L112.66,170.17z"/>
		</g>
	</g>
</g>
</svg>
