<svg width="55" height="54" viewBox="0 0 55 54" fill="none" xmlns="http://www.w3.org/2000/svg">
<path d="M27.5 47.25C38.8909 47.25 48.125 38.1838 48.125 27C48.125 15.8162 38.8909 6.75 27.5 6.75C16.1091 6.75 6.875 15.8162 6.875 27C6.875 38.1838 16.1091 47.25 27.5 47.25Z" stroke="#34A853" stroke-width="1.5" stroke-linecap="round" stroke-linejoin="round"/>
<path d="M27.5 47.25C31.297 47.25 34.375 38.1838 34.375 27C34.375 15.8162 31.297 6.75 27.5 6.75C23.703 6.75 20.625 15.8162 20.625 27C20.625 38.1838 23.703 47.25 27.5 47.25Z" stroke="#34A853" stroke-width="1.5" stroke-linecap="round" stroke-linejoin="round"/>
<path d="M27.5 33.75C38.8909 33.75 48.125 30.7279 48.125 27C48.125 23.2721 38.8909 20.25 27.5 20.25C16.1091 20.25 6.875 23.2721 6.875 27C6.875 30.7279 16.1091 33.75 27.5 33.75Z" stroke="#34A853" stroke-width="1.5" stroke-linecap="round" stroke-linejoin="round"/>
</svg>
